# xmcd
#
# Track frame offsets: 
#        150
#        33075
#        56680
#        79347
#        101719
#        123644
#        146241
#        162422
#        191094
#        215260
#        238095
#        258217
#        278176
#        288467
#
# Disc length: 4045 seconds
#
# Revision: 1
# Processed by: cddbd v1.5.2PL0 Copyright (c) Steve Scherf et al.
# Submitted via: ExactAudioCopy v1.0b3
#
DISCID=d70fcb0e
DTITLE=SHRI - Time to Get Real
DYEAR=2004
DGENRE=Blues
TTITLE0=Help Me
TTITLE1=Something on My Mind
TTITLE2=The Thrill is Back
TTITLE3=Since I Fell for You
TTITLE4=How Could I
TTITLE5=Operator
TTITLE6=3 Legged Dog Blues
TTITLE7=Possible
TTITLE8=Trial
TTITLE9=Learned to Cry
TTITLE10=After Dark
TTITLE11=Doin´  Time
TTITLE12=Drive
TTITLE13=Invite the Lord to Stay
EXTD=
EXTT0=
EXTT1=
EXTT2=
EXTT3=
EXTT4=
EXTT5=
EXTT6=
EXTT7=
EXTT8=
EXTT9=
EXTT10=
EXTT11=
EXTT12=
EXTT13=
PLAYORDER=
